<?xml version="1.0" encoding="UTF-8"?>
<svg width="200px" height="200px" viewBox="0 0 200 200" version="1.1" xmlns="http://www.w3.org/2000/svg" xmlns:xlink="http://www.w3.org/1999/xlink">
    <!-- Generator: Sketch 54.1 (76490) - https://sketchapp.com -->
    <title>okla-christian</title>
    <desc>Created with Sketch.</desc>
    <g id="okla-christian" stroke="none" stroke-width="1" fill="none" fill-rule="evenodd">
        <g id="okla-christian_BGL">
            <g id="okla-christian" transform="translate(0.000000, 65.000000)">
                <g id="g10" transform="translate(100.000000, 34.693394) scale(-1, 1) rotate(-180.000000) translate(-100.000000, -34.693394) translate(0.000000, 0.193394)" fill-rule="nonzero">
                    <g id="g12">
                        <path d="M40.5984473,26.6342013 C45.0480587,32.5671287 50.5588231,37.0850902 57.1588814,40.310296 C55.1231925,41.5409917 36.9407894,44.4797672 29.155758,45.3982538 C19.6805515,46.5153322 10.1904636,47.3497993 0.556141444,47.4672358 C0.75990112,47.9503483 1.19365358,48.1269803 1.53497011,48.3733104 C8.33401839,53.2808172 15.994848,56.2730596 24.0213194,58.4193777 C32.8183763,60.7719257 41.7830389,62.0303098 50.8789624,62.3797548 C51.2601532,62.3940763 51.6409625,62.4122169 52.0211041,62.4427695 C52.07958,62.4484981 52.1309969,62.5353819 52.2427976,62.6365873 C49.5013905,63.8854237 46.6477058,64.6425546 43.5366504,65.3834544 C56.5280468,68.3413252 69.411649,69.2502642 82.4272752,68.5886101 C92.4139796,68.0806736 102.347264,67.0542982 112.188971,65.2889324 C123.542658,63.2533674 134.599673,60.2267533 144.859202,54.766436 C148.098752,53.0421252 151.162778,51.0552533 153.789904,48.4516014 C154.717125,47.5331147 155.233202,45.84604 156.20812,45.5481524 C157.407211,45.1824763 158.631105,44.924689 159.797762,44.348964 C160.760279,43.8725348 161.889733,44.0062023 162.94955,43.9030874 C170.088771,43.2051521 176.727177,40.7943633 183.231079,37.9415169 C186.610857,36.4578077 189.835144,34.6561608 193.123344,32.985317 C197.934018,30.5411113 199.896255,26.7029446 199.592905,21.4393095 C199.35633,17.336672 198.157238,13.5471984 196.298981,9.86179453 C195.243933,11.4686688 194.241351,12.9934331 193.240678,14.5191521 C191.757315,16.7800424 189.784585,17.7815938 186.971443,17.6479263 C182.251392,17.4245107 177.519894,17.8789801 172.785534,17.6622478 C167.307108,17.4120987 162.217885,16.0735141 157.566517,13.0631311 C152.097631,9.52380671 147.128604,5.38202378 142.448618,0.875519538 C141.894384,0.340849543 141.623468,0.315070811 141.019629,0.823007306 C136.15935,4.91896137 130.43004,7.37653382 124.479418,9.35290326 C116.748761,11.9221835 108.780575,13.3877522 100.690285,14.2203098 C98.1184873,14.4847804 95.5428735,14.7072414 92.7135139,14.9726668 C97.5680691,18.4967149 102.544727,21.2588583 108.396141,22.296691 C86.0207336,27.820023 63.4235375,28.7070023 40.5984473,26.6342013" id="path14" fill="#151211"></path>
                        <path d="M100.619695,38.2327211 C93.7704695,42.6857584 86.194349,45.4249873 78.4125609,47.6839681 C78.1942061,47.7469827 77.985486,47.8434143 77.7727594,47.9236148 C76.0079869,48.8163227 74.1482029,49.4951627 72.3550987,50.3277202 C67.0025915,52.8129809 61.617746,55.2266341 56.2906133,57.7663165 C55.85543,57.9744559 55.0859892,58.0422444 55.3415473,58.8929426 C60.0415657,59.0027409 64.7109629,58.5816883 69.3748272,58.0775709 C72.27535,57.764407 75.1572712,57.311847 78.2787244,56.7313482 C74.2197477,59.4533913 62.4948856,63.1435691 54.4055502,64.2826071 C56.4650873,64.7628553 58.3188616,64.8516487 60.1514585,65.0435571 C70.4531509,66.1205352 80.7817441,66.4098299 91.1185412,65.7453114 C103.259222,64.9643113 115.361745,63.8691926 127.08365,60.2878584 C135.462981,57.7271711 143.474094,54.3854836 150.621899,49.2125514 C152.137696,48.1164779 153.580993,46.9239729 154.779131,45.4698614 C154.949885,45.2626768 155.456422,44.9896132 154.857353,44.7041376 C152.212102,43.4419345 151.075971,41.0741103 150.248912,38.4036246 C142.17484,42.6408843 133.543671,44.3250948 124.447939,44.0510764 C124.934444,43.8066558 125.417133,43.5545971 125.908407,43.320679 C129.927319,41.3987313 133.883271,39.364121 137.606464,36.8998652 C139.954088,35.3474127 141.980238,33.4560176 143.654387,31.1979916 C144.451873,30.122923 144.366019,29.9768436 143.042917,29.8374474 C141.614882,29.6875489 140.335661,29.1920244 139.218607,28.2248445 C141.327749,28.6764497 143.407319,28.6248923 145.505013,28.2047944 C148.909593,27.5230902 148.913409,27.5545975 148.794167,24.1355739 C148.76078,23.180806 148.726438,22.2260382 148.738839,21.2722251 C148.745517,20.7805196 148.633907,20.4826321 148.089212,20.4110245 C146.344472,20.182835 144.839169,19.4046992 143.467416,18.3372687 C142.224444,18.3229472 141.252388,19.0810329 140.205926,19.5593716 C131.133088,23.6992449 122.079328,27.8792186 113.009351,32.022911 C109.37392,33.6832523 105.735627,35.3359555 102.124044,37.0507185 C101.527837,37.3342846 101.039424,37.7352871 100.619695,38.2327211" id="path80" fill="#F7F7F7"></path>
                        <path d="M150.77739,31.2018107 C150.879461,33.83697 151.136068,36.4597172 151.753262,39.0223141 C152.340883,41.4646103 153.638229,43.4075629 156.073615,44.4234359 C156.844392,44.7461474 157.578919,44.8196645 158.219006,44.2639896 C159.209187,43.4056533 160.41114,43.2509809 161.620725,43.119223 C172.942932,41.8818438 183.15381,37.5949362 192.78756,31.7336164 C193.663269,31.2008559 194.481742,30.5649805 195.28209,29.9205122 C197.006797,28.5322798 197.894907,26.7344519 198.041813,24.4945666 C198.248816,21.305642 198.234507,18.163501 196.991535,15.1483441 C196.367664,15.3908551 196.524108,15.9560777 196.518385,16.4105472 C196.506938,17.5190327 196.418222,18.6160609 196.299935,19.7188178 C196.100563,21.572977 195.115152,22.8103561 193.516364,23.633366 C191.662876,24.5862243 189.624325,24.9843625 187.633471,25.4760679 C182.969702,26.6275179 178.301163,27.7732394 173.579204,28.6783593 C170.124066,29.3400134 166.744288,28.9409204 163.390267,28.0892675 C161.76286,27.6768078 160.149763,27.2385694 158.471798,27.0533444 C156.365518,26.820381 154.365125,27.1392735 152.461078,28.0405744 C150.809824,28.8225292 150.575157,29.3037322 150.77739,31.2018107" id="path82" fill="#D8D2A5"></path>
                        <path d="M100.619695,38.2327211 C114.756953,31.2896493 129.237627,25.0836583 143.467416,18.3372687 C142.020303,16.8545142 140.748713,15.2552781 140.142013,13.2273512 C140.023725,12.8339868 139.873004,12.7986604 139.495247,12.9571519 C133.970079,15.2724639 128.158731,16.4038638 122.240542,17.0702918 C117.764698,17.5744092 113.272636,17.7271721 108.74051,17.7271721 C112.270055,19.8343447 116.062885,21.2254415 120.175281,22.1267423 C118.103343,22.9230187 116.040944,23.7488929 113.956605,24.5117524 C106.543607,27.2261574 98.9207434,29.1719743 91.1729152,30.6327691 C88.9540716,31.0509574 86.7018403,31.2934684 84.4667799,31.6285919 C84.2903026,31.6553254 84.1281343,31.7765809 83.9602425,31.8548719 C81.9312311,32.7619014 79.9228246,33.7128501 77.8867541,34.6046033 C77.3333787,34.8471143 76.7674114,35.0724396 76.2691732,35.4132917 C75.7642575,35.7589176 75.4796045,36.1723321 76.1715861,36.6373041 C81.1127582,37.2292601 86.0846469,37.344787 91.0479503,37.5853885 C93.971749,37.7276489 96.8993634,37.7792064 99.82507,37.8947333 C100.099802,37.9052358 100.559597,37.6522223 100.619695,38.2327211" id="path84" fill="#E9EAEA"></path>
                        <path d="M195.736161,14.3110127 C194.556149,15.5913564 193.565968,16.9719507 192.231419,18.0546574 C191.318506,18.7946025 190.368391,19.2471625 189.144498,19.3092224 C182.508953,19.6424364 175.887718,19.4333422 169.257897,19.0924901 C163.767069,18.8108336 159.02317,16.8745644 154.675152,13.5978011 C151.44705,11.1650526 148.183652,8.77908779 145.030909,6.24799822 C144.444242,5.77729767 144.187634,5.67513751 143.913856,6.54970486 C142.997128,9.46938494 143.982539,12.4988633 146.818576,14.1563403 C153.667801,18.1587271 160.765048,21.671318 168.327814,24.1317548 C171.594074,25.1934566 174.982437,24.8879309 178.311656,24.4687878 C182.65872,23.9226606 186.934239,22.9783952 191.157292,21.7877997 C192.838119,21.3142349 193.956126,20.4291651 194.376809,18.644704 C194.722133,17.1753162 195.274459,15.7536669 195.736161,14.3110127" id="path86" fill="#B8AB70"></path>
                        <path d="M55.3415473,58.8929426 C55.970951,57.8111906 57.1860684,57.6402872 58.1709069,57.1676771 C61.4199007,55.6085412 64.7195482,54.1563393 68.0031698,52.6707205 C70.9058866,51.3579147 73.8131823,50.0537019 76.7197149,48.749489 C77.1415432,48.5604449 77.5472501,48.3589889 77.7727594,47.9236148 C72.693458,49.2259181 67.6022325,50.4699806 62.4412747,51.4218842 C50.958711,53.5386045 39.4172898,54.5201059 27.7584397,53.339058 C22.9496732,52.8511717 18.1810672,52.1007241 13.4707464,50.9311335 C14.2900778,51.5574612 15.2343742,51.932685 16.1775258,52.3012254 C17.1675155,52.6879064 18.1576005,53.084135 19.170103,53.4058918 C30.7543556,57.081748 42.5934987,59.1316346 54.7777741,58.9578668 C54.9659847,58.9550025 55.1534321,58.915857 55.3415473,58.8929426" id="path88" fill="#E9E8E9"></path>
                        <path d="M150.77739,31.2018107 C150.923342,29.0449901 152.534531,27.8505756 155.202676,27.4562564 C157.850789,27.0638468 160.347227,27.5603261 162.823632,28.2754472 C167.194544,29.5376503 171.541608,29.6092579 175.969756,28.5571038 C181.206837,27.3130413 186.466813,26.1692294 191.660014,24.7408967 C194.462663,23.9694442 196.342861,22.2527717 196.595653,20.1217298 C196.752098,18.7984216 196.899957,17.4760681 196.83509,16.1393931 C196.818873,15.8061791 196.74542,15.4471864 196.991535,15.1483441 C196.794071,14.5038758 196.672922,13.8298097 196.198818,13.1118243 C195.826785,15.3889456 195.440443,17.5266708 195.040745,19.6577126 C194.686837,21.5452887 193.633697,22.5974429 191.880372,23.1588463 C188.495824,24.2425079 184.984404,24.7323038 181.517819,25.4235557 C178.645532,25.9964164 175.765614,26.5511365 172.84277,26.8270644 C169.589865,27.1335449 166.612646,25.9696829 163.601085,25.0569248 C161.346946,24.373311 159.128103,23.5684418 156.913075,22.7607082 C154.702816,21.9548841 152.51736,21.0784072 150.273714,20.2143423 C150.05908,20.5150942 150.160197,20.8597654 150.174506,21.1729292 C150.311872,24.2596937 150.459731,27.3445486 150.615222,30.4303583 C150.628577,30.6891004 150.721108,30.9449781 150.77739,31.2018107" id="path90" fill="#B8AB70"></path>
                        <path d="M76.1715861,36.6373041 C75.7646391,36.0472575 76.0717095,35.7617819 76.6086773,35.5192709 C78.7945149,34.5349053 80.9706225,33.5285799 83.1551246,32.54135 C83.4975859,32.3866776 83.9125459,32.343713 83.9602425,31.8548719 C80.3934942,32.142257 76.8463969,32.6301434 73.2699186,32.8459209 C66.1410963,33.277476 59.0276323,33.3299882 51.9345825,32.3456226 C51.7475166,32.3198439 51.557112,32.3217534 51.2198974,32.302658 C51.8489195,32.8879307 52.5453846,33.0139601 53.1848046,33.2182804 C57.4853166,34.5883723 61.9367405,35.1984689 66.3944604,35.7388675 C69.6430726,36.1322319 72.8950237,36.5322796 76.1715861,36.6373041" id="path92" fill="#E9EAEA"></path>
                        <path d="M146.026813,31.5684416 C145.070021,32.2721055 144.503385,32.8812473 144.778118,34.2226962 C145.230281,36.4310742 142.840684,38.1105108 140.735358,37.1662454 C140.150598,36.9046391 139.802413,36.9819753 139.328309,37.3075511 C138.343853,37.986391 137.316469,38.6060354 136.08876,39.388945 C140.50546,39.3688949 144.340263,38.2871429 147.862177,36.0844935 C148.114968,35.926002 148.298123,35.7971084 148.009082,35.498266 C146.958804,34.4069664 146.393123,33.0540603 146.026813,31.5684416" id="path94" fill="#FFFFFF"></path>
                    </g>
                </g>
            </g>
        </g>
    </g>
</svg>